<svg xmlns="http://www.w3.org/2000/svg" viewBox="0 0 900 292" width="900" height="292" role="img" aria-label="NovelGenerator">
  <rect width="900" height="292" fill="#17171A"/>
  <g opacity="1">
    <rect x="19.0" y="33.0" width="15.1" height="15.1" fill="none" stroke="#E07A5F" stroke-width="1.6"/>
    <rect x="83.0" y="33.0" width="15.1" height="15.1" fill="none" stroke="#E07A5F" stroke-width="1.6"/>
    <rect x="19.0" y="49.0" width="15.1" height="15.1" fill="none" stroke="#E07A5F" stroke-width="1.6"/>
    <rect x="35.0" y="49.0" width="15.1" height="15.1" fill="none" stroke="#E07A5F" stroke-width="1.6"/>
    <rect x="83.0" y="49.0" width="15.1" height="15.1" fill="none" stroke="#E07A5F" stroke-width="1.6"/>
    <rect x="19.0" y="65.0" width="15.1" height="15.1" fill="none" stroke="#E07A5F" stroke-width="1.6"/>
    <rect x="35.0" y="65.0" width="15.1" height="15.1" fill="none" stroke="#E07A5F" stroke-width="1.6"/>
    <rect x="83.0" y="65.0" width="15.1" height="15.1" fill="none" stroke="#E07A5F" stroke-width="1.6"/>
    <rect x="19.0" y="81.0" width="15.1" height="15.1" fill="none" stroke="#E07A5F" stroke-width="1.6"/>
    <rect x="51.0" y="81.0" width="15.1" height="15.1" fill="none" stroke="#E07A5F" stroke-width="1.6"/>
    <rect x="83.0" y="81.0" width="15.1" height="15.1" fill="none" stroke="#E07A5F" stroke-width="1.6"/>
    <rect x="19.0" y="97.0" width="15.1" height="15.1" fill="none" stroke="#E07A5F" stroke-width="1.6"/>
    <rect x="67.0" y="97.0" width="15.1" height="15.1" fill="none" stroke="#E07A5F" stroke-width="1.6"/>
    <rect x="83.0" y="97.0" width="15.1" height="15.1" fill="none" stroke="#E07A5F" stroke-width="1.6"/>
    <rect x="19.0" y="113.0" width="15.1" height="15.1" fill="none" stroke="#E07A5F" stroke-width="1.6"/>
    <rect x="67.0" y="113.0" width="15.1" height="15.1" fill="none" stroke="#E07A5F" stroke-width="1.6"/>
    <rect x="83.0" y="113.0" width="15.1" height="15.1" fill="none" stroke="#E07A5F" stroke-width="1.6"/>
    <rect x="19.0" y="129.0" width="15.1" height="15.1" fill="none" stroke="#E07A5F" stroke-width="1.6"/>
    <rect x="83.0" y="129.0" width="15.1" height="15.1" fill="none" stroke="#E07A5F" stroke-width="1.6"/>
    <rect x="131.0" y="33.0" width="15.1" height="15.1" fill="none" stroke="#E07A5F" stroke-width="1.6"/>
    <rect x="147.0" y="33.0" width="15.1" height="15.1" fill="none" stroke="#E07A5F" stroke-width="1.6"/>
    <rect x="163.0" y="33.0" width="15.1" height="15.1" fill="none" stroke="#E07A5F" stroke-width="1.6"/>
    <rect x="115.0" y="49.0" width="15.1" height="15.1" fill="none" stroke="#E07A5F" stroke-width="1.6"/>
    <rect x="179.0" y="49.0" width="15.1" height="15.1" fill="none" stroke="#E07A5F" stroke-width="1.6"/>
    <rect x="115.0" y="65.0" width="15.1" height="15.1" fill="none" stroke="#E07A5F" stroke-width="1.6"/>
    <rect x="179.0" y="65.0" width="15.1" height="15.1" fill="none" stroke="#E07A5F" stroke-width="1.6"/>
    <rect x="115.0" y="81.0" width="15.1" height="15.1" fill="none" stroke="#E07A5F" stroke-width="1.6"/>
    <rect x="179.0" y="81.0" width="15.1" height="15.1" fill="none" stroke="#E07A5F" stroke-width="1.6"/>
    <rect x="115.0" y="97.0" width="15.1" height="15.1" fill="none" stroke="#E07A5F" stroke-width="1.6"/>
    <rect x="179.0" y="97.0" width="15.1" height="15.1" fill="none" stroke="#E07A5F" stroke-width="1.6"/>
    <rect x="115.0" y="113.0" width="15.1" height="15.1" fill="none" stroke="#E07A5F" stroke-width="1.6"/>
    <rect x="179.0" y="113.0" width="15.1" height="15.1" fill="none" stroke="#E07A5F" stroke-width="1.6"/>
    <rect x="131.0" y="129.0" width="15.1" height="15.1" fill="none" stroke="#E07A5F" stroke-width="1.6"/>
    <rect x="147.0" y="129.0" width="15.1" height="15.1" fill="none" stroke="#E07A5F" stroke-width="1.6"/>
    <rect x="163.0" y="129.0" width="15.1" height="15.1" fill="none" stroke="#E07A5F" stroke-width="1.6"/>
    <rect x="211.0" y="33.0" width="15.1" height="15.1" fill="none" stroke="#E07A5F" stroke-width="1.6"/>
    <rect x="275.0" y="33.0" width="15.1" height="15.1" fill="none" stroke="#E07A5F" stroke-width="1.6"/>
    <rect x="211.0" y="49.0" width="15.1" height="15.1" fill="none" stroke="#E07A5F" stroke-width="1.6"/>
    <rect x="275.0" y="49.0" width="15.1" height="15.1" fill="none" stroke="#E07A5F" stroke-width="1.6"/>
    <rect x="211.0" y="65.0" width="15.1" height="15.1" fill="none" stroke="#E07A5F" stroke-width="1.6"/>
    <rect x="275.0" y="65.0" width="15.1" height="15.1" fill="none" stroke="#E07A5F" stroke-width="1.6"/>
    <rect x="211.0" y="81.0" width="15.1" height="15.1" fill="none" stroke="#E07A5F" stroke-width="1.6"/>
    <rect x="275.0" y="81.0" width="15.1" height="15.1" fill="none" stroke="#E07A5F" stroke-width="1.6"/>
    <rect x="211.0" y="97.0" width="15.1" height="15.1" fill="none" stroke="#E07A5F" stroke-width="1.6"/>
    <rect x="275.0" y="97.0" width="15.1" height="15.1" fill="none" stroke="#E07A5F" stroke-width="1.6"/>
    <rect x="227.0" y="113.0" width="15.1" height="15.1" fill="none" stroke="#E07A5F" stroke-width="1.6"/>
    <rect x="259.0" y="113.0" width="15.1" height="15.1" fill="none" stroke="#E07A5F" stroke-width="1.6"/>
    <rect x="243.0" y="129.0" width="15.1" height="15.1" fill="none" stroke="#E07A5F" stroke-width="1.6"/>
    <rect x="307.0" y="33.0" width="15.1" height="15.1" fill="none" stroke="#E07A5F" stroke-width="1.6"/>
    <rect x="323.0" y="33.0" width="15.1" height="15.1" fill="none" stroke="#E07A5F" stroke-width="1.6"/>
    <rect x="339.0" y="33.0" width="15.1" height="15.1" fill="none" stroke="#E07A5F" stroke-width="1.6"/>
    <rect x="355.0" y="33.0" width="15.1" height="15.1" fill="none" stroke="#E07A5F" stroke-width="1.6"/>
    <rect x="371.0" y="33.0" width="15.1" height="15.1" fill="none" stroke="#E07A5F" stroke-width="1.6"/>
    <rect x="307.0" y="49.0" width="15.1" height="15.1" fill="none" stroke="#E07A5F" stroke-width="1.6"/>
    <rect x="307.0" y="65.0" width="15.1" height="15.1" fill="none" stroke="#E07A5F" stroke-width="1.6"/>
    <rect x="307.0" y="81.0" width="15.1" height="15.1" fill="none" stroke="#E07A5F" stroke-width="1.6"/>
    <rect x="323.0" y="81.0" width="15.1" height="15.1" fill="none" stroke="#E07A5F" stroke-width="1.6"/>
    <rect x="339.0" y="81.0" width="15.1" height="15.1" fill="none" stroke="#E07A5F" stroke-width="1.6"/>
    <rect x="355.0" y="81.0" width="15.1" height="15.1" fill="none" stroke="#E07A5F" stroke-width="1.6"/>
    <rect x="307.0" y="97.0" width="15.1" height="15.1" fill="none" stroke="#E07A5F" stroke-width="1.6"/>
    <rect x="307.0" y="113.0" width="15.1" height="15.1" fill="none" stroke="#E07A5F" stroke-width="1.6"/>
    <rect x="307.0" y="129.0" width="15.1" height="15.1" fill="none" stroke="#E07A5F" stroke-width="1.6"/>
    <rect x="323.0" y="129.0" width="15.1" height="15.1" fill="none" stroke="#E07A5F" stroke-width="1.6"/>
    <rect x="339.0" y="129.0" width="15.1" height="15.1" fill="none" stroke="#E07A5F" stroke-width="1.6"/>
    <rect x="355.0" y="129.0" width="15.1" height="15.1" fill="none" stroke="#E07A5F" stroke-width="1.6"/>
    <rect x="371.0" y="129.0" width="15.1" height="15.1" fill="none" stroke="#E07A5F" stroke-width="1.6"/>
    <rect x="403.0" y="33.0" width="15.1" height="15.1" fill="none" stroke="#E07A5F" stroke-width="1.6"/>
    <rect x="403.0" y="49.0" width="15.1" height="15.1" fill="none" stroke="#E07A5F" stroke-width="1.6"/>
    <rect x="403.0" y="65.0" width="15.1" height="15.1" fill="none" stroke="#E07A5F" stroke-width="1.6"/>
    <rect x="403.0" y="81.0" width="15.1" height="15.1" fill="none" stroke="#E07A5F" stroke-width="1.6"/>
    <rect x="403.0" y="97.0" width="15.1" height="15.1" fill="none" stroke="#E07A5F" stroke-width="1.6"/>
    <rect x="403.0" y="113.0" width="15.1" height="15.1" fill="none" stroke="#E07A5F" stroke-width="1.6"/>
    <rect x="403.0" y="129.0" width="15.1" height="15.1" fill="none" stroke="#E07A5F" stroke-width="1.6"/>
    <rect x="419.0" y="129.0" width="15.1" height="15.1" fill="none" stroke="#E07A5F" stroke-width="1.6"/>
    <rect x="435.0" y="129.0" width="15.1" height="15.1" fill="none" stroke="#E07A5F" stroke-width="1.6"/>
    <rect x="451.0" y="129.0" width="15.1" height="15.1" fill="none" stroke="#E07A5F" stroke-width="1.6"/>
    <rect x="467.0" y="129.0" width="15.1" height="15.1" fill="none" stroke="#E07A5F" stroke-width="1.6"/>
    <rect x="35.0" y="161.0" width="15.1" height="15.1" fill="none" stroke="#E07A5F" stroke-width="1.6"/>
    <rect x="51.0" y="161.0" width="15.1" height="15.1" fill="none" stroke="#E07A5F" stroke-width="1.6"/>
    <rect x="67.0" y="161.0" width="15.1" height="15.1" fill="none" stroke="#E07A5F" stroke-width="1.6"/>
    <rect x="19.0" y="177.0" width="15.1" height="15.1" fill="none" stroke="#E07A5F" stroke-width="1.6"/>
    <rect x="83.0" y="177.0" width="15.1" height="15.1" fill="none" stroke="#E07A5F" stroke-width="1.6"/>
    <rect x="19.0" y="193.0" width="15.1" height="15.1" fill="none" stroke="#E07A5F" stroke-width="1.6"/>
    <rect x="19.0" y="209.0" width="15.1" height="15.1" fill="none" stroke="#E07A5F" stroke-width="1.6"/>
    <rect x="51.0" y="209.0" width="15.1" height="15.1" fill="none" stroke="#E07A5F" stroke-width="1.6"/>
    <rect x="67.0" y="209.0" width="15.1" height="15.1" fill="none" stroke="#E07A5F" stroke-width="1.6"/>
    <rect x="83.0" y="209.0" width="15.1" height="15.1" fill="none" stroke="#E07A5F" stroke-width="1.6"/>
    <rect x="19.0" y="225.0" width="15.1" height="15.1" fill="none" stroke="#E07A5F" stroke-width="1.6"/>
    <rect x="83.0" y="225.0" width="15.1" height="15.1" fill="none" stroke="#E07A5F" stroke-width="1.6"/>
    <rect x="19.0" y="241.0" width="15.1" height="15.1" fill="none" stroke="#E07A5F" stroke-width="1.6"/>
    <rect x="83.0" y="241.0" width="15.1" height="15.1" fill="none" stroke="#E07A5F" stroke-width="1.6"/>
    <rect x="35.0" y="257.0" width="15.1" height="15.1" fill="none" stroke="#E07A5F" stroke-width="1.6"/>
    <rect x="51.0" y="257.0" width="15.1" height="15.1" fill="none" stroke="#E07A5F" stroke-width="1.6"/>
    <rect x="67.0" y="257.0" width="15.1" height="15.1" fill="none" stroke="#E07A5F" stroke-width="1.6"/>
    <rect x="83.0" y="257.0" width="15.1" height="15.1" fill="none" stroke="#E07A5F" stroke-width="1.6"/>
    <rect x="115.0" y="161.0" width="15.1" height="15.1" fill="none" stroke="#E07A5F" stroke-width="1.6"/>
    <rect x="131.0" y="161.0" width="15.1" height="15.1" fill="none" stroke="#E07A5F" stroke-width="1.6"/>
    <rect x="147.0" y="161.0" width="15.1" height="15.1" fill="none" stroke="#E07A5F" stroke-width="1.6"/>
    <rect x="163.0" y="161.0" width="15.1" height="15.1" fill="none" stroke="#E07A5F" stroke-width="1.6"/>
    <rect x="179.0" y="161.0" width="15.1" height="15.1" fill="none" stroke="#E07A5F" stroke-width="1.6"/>
    <rect x="115.0" y="177.0" width="15.1" height="15.1" fill="none" stroke="#E07A5F" stroke-width="1.6"/>
    <rect x="115.0" y="193.0" width="15.1" height="15.1" fill="none" stroke="#E07A5F" stroke-width="1.6"/>
    <rect x="115.0" y="209.0" width="15.1" height="15.1" fill="none" stroke="#E07A5F" stroke-width="1.6"/>
    <rect x="131.0" y="209.0" width="15.1" height="15.1" fill="none" stroke="#E07A5F" stroke-width="1.6"/>
    <rect x="147.0" y="209.0" width="15.1" height="15.1" fill="none" stroke="#E07A5F" stroke-width="1.6"/>
    <rect x="163.0" y="209.0" width="15.1" height="15.1" fill="none" stroke="#E07A5F" stroke-width="1.6"/>
    <rect x="115.0" y="225.0" width="15.1" height="15.1" fill="none" stroke="#E07A5F" stroke-width="1.6"/>
    <rect x="115.0" y="241.0" width="15.1" height="15.1" fill="none" stroke="#E07A5F" stroke-width="1.6"/>
    <rect x="115.0" y="257.0" width="15.1" height="15.1" fill="none" stroke="#E07A5F" stroke-width="1.6"/>
    <rect x="131.0" y="257.0" width="15.1" height="15.1" fill="none" stroke="#E07A5F" stroke-width="1.6"/>
    <rect x="147.0" y="257.0" width="15.1" height="15.1" fill="none" stroke="#E07A5F" stroke-width="1.6"/>
    <rect x="163.0" y="257.0" width="15.1" height="15.1" fill="none" stroke="#E07A5F" stroke-width="1.6"/>
    <rect x="179.0" y="257.0" width="15.1" height="15.1" fill="none" stroke="#E07A5F" stroke-width="1.6"/>
    <rect x="211.0" y="161.0" width="15.1" height="15.1" fill="none" stroke="#E07A5F" stroke-width="1.6"/>
    <rect x="275.0" y="161.0" width="15.1" height="15.1" fill="none" stroke="#E07A5F" stroke-width="1.6"/>
    <rect x="211.0" y="177.0" width="15.1" height="15.1" fill="none" stroke="#E07A5F" stroke-width="1.6"/>
    <rect x="227.0" y="177.0" width="15.1" height="15.1" fill="none" stroke="#E07A5F" stroke-width="1.6"/>
    <rect x="275.0" y="177.0" width="15.1" height="15.1" fill="none" stroke="#E07A5F" stroke-width="1.6"/>
    <rect x="211.0" y="193.0" width="15.1" height="15.1" fill="none" stroke="#E07A5F" stroke-width="1.6"/>
    <rect x="227.0" y="193.0" width="15.1" height="15.1" fill="none" stroke="#E07A5F" stroke-width="1.6"/>
    <rect x="275.0" y="193.0" width="15.1" height="15.1" fill="none" stroke="#E07A5F" stroke-width="1.6"/>
    <rect x="211.0" y="209.0" width="15.1" height="15.1" fill="none" stroke="#E07A5F" stroke-width="1.6"/>
    <rect x="243.0" y="209.0" width="15.1" height="15.1" fill="none" stroke="#E07A5F" stroke-width="1.6"/>
    <rect x="275.0" y="209.0" width="15.1" height="15.1" fill="none" stroke="#E07A5F" stroke-width="1.6"/>
    <rect x="211.0" y="225.0" width="15.1" height="15.1" fill="none" stroke="#E07A5F" stroke-width="1.6"/>
    <rect x="259.0" y="225.0" width="15.1" height="15.1" fill="none" stroke="#E07A5F" stroke-width="1.6"/>
    <rect x="275.0" y="225.0" width="15.1" height="15.1" fill="none" stroke="#E07A5F" stroke-width="1.6"/>
    <rect x="211.0" y="241.0" width="15.1" height="15.1" fill="none" stroke="#E07A5F" stroke-width="1.6"/>
    <rect x="259.0" y="241.0" width="15.1" height="15.1" fill="none" stroke="#E07A5F" stroke-width="1.6"/>
    <rect x="275.0" y="241.0" width="15.1" height="15.1" fill="none" stroke="#E07A5F" stroke-width="1.6"/>
    <rect x="211.0" y="257.0" width="15.1" height="15.1" fill="none" stroke="#E07A5F" stroke-width="1.6"/>
    <rect x="275.0" y="257.0" width="15.1" height="15.1" fill="none" stroke="#E07A5F" stroke-width="1.6"/>
    <rect x="307.0" y="161.0" width="15.1" height="15.1" fill="none" stroke="#E07A5F" stroke-width="1.6"/>
    <rect x="323.0" y="161.0" width="15.1" height="15.1" fill="none" stroke="#E07A5F" stroke-width="1.6"/>
    <rect x="339.0" y="161.0" width="15.1" height="15.1" fill="none" stroke="#E07A5F" stroke-width="1.6"/>
    <rect x="355.0" y="161.0" width="15.1" height="15.1" fill="none" stroke="#E07A5F" stroke-width="1.6"/>
    <rect x="371.0" y="161.0" width="15.1" height="15.1" fill="none" stroke="#E07A5F" stroke-width="1.6"/>
    <rect x="307.0" y="177.0" width="15.1" height="15.1" fill="none" stroke="#E07A5F" stroke-width="1.6"/>
    <rect x="307.0" y="193.0" width="15.1" height="15.1" fill="none" stroke="#E07A5F" stroke-width="1.6"/>
    <rect x="307.0" y="209.0" width="15.1" height="15.1" fill="none" stroke="#E07A5F" stroke-width="1.6"/>
    <rect x="323.0" y="209.0" width="15.1" height="15.1" fill="none" stroke="#E07A5F" stroke-width="1.6"/>
    <rect x="339.0" y="209.0" width="15.1" height="15.1" fill="none" stroke="#E07A5F" stroke-width="1.6"/>
    <rect x="355.0" y="209.0" width="15.1" height="15.1" fill="none" stroke="#E07A5F" stroke-width="1.6"/>
    <rect x="307.0" y="225.0" width="15.1" height="15.1" fill="none" stroke="#E07A5F" stroke-width="1.6"/>
    <rect x="307.0" y="241.0" width="15.1" height="15.1" fill="none" stroke="#E07A5F" stroke-width="1.6"/>
    <rect x="307.0" y="257.0" width="15.1" height="15.1" fill="none" stroke="#E07A5F" stroke-width="1.6"/>
    <rect x="323.0" y="257.0" width="15.1" height="15.1" fill="none" stroke="#E07A5F" stroke-width="1.6"/>
    <rect x="339.0" y="257.0" width="15.1" height="15.1" fill="none" stroke="#E07A5F" stroke-width="1.6"/>
    <rect x="355.0" y="257.0" width="15.1" height="15.1" fill="none" stroke="#E07A5F" stroke-width="1.6"/>
    <rect x="371.0" y="257.0" width="15.1" height="15.1" fill="none" stroke="#E07A5F" stroke-width="1.6"/>
    <rect x="403.0" y="161.0" width="15.1" height="15.1" fill="none" stroke="#E07A5F" stroke-width="1.6"/>
    <rect x="419.0" y="161.0" width="15.1" height="15.1" fill="none" stroke="#E07A5F" stroke-width="1.6"/>
    <rect x="435.0" y="161.0" width="15.1" height="15.1" fill="none" stroke="#E07A5F" stroke-width="1.6"/>
    <rect x="451.0" y="161.0" width="15.1" height="15.1" fill="none" stroke="#E07A5F" stroke-width="1.6"/>
    <rect x="403.0" y="177.0" width="15.1" height="15.1" fill="none" stroke="#E07A5F" stroke-width="1.6"/>
    <rect x="467.0" y="177.0" width="15.1" height="15.1" fill="none" stroke="#E07A5F" stroke-width="1.6"/>
    <rect x="403.0" y="193.0" width="15.1" height="15.1" fill="none" stroke="#E07A5F" stroke-width="1.6"/>
    <rect x="467.0" y="193.0" width="15.1" height="15.1" fill="none" stroke="#E07A5F" stroke-width="1.6"/>
    <rect x="403.0" y="209.0" width="15.1" height="15.1" fill="none" stroke="#E07A5F" stroke-width="1.6"/>
    <rect x="419.0" y="209.0" width="15.1" height="15.1" fill="none" stroke="#E07A5F" stroke-width="1.6"/>
    <rect x="435.0" y="209.0" width="15.1" height="15.1" fill="none" stroke="#E07A5F" stroke-width="1.6"/>
    <rect x="451.0" y="209.0" width="15.1" height="15.1" fill="none" stroke="#E07A5F" stroke-width="1.6"/>
    <rect x="403.0" y="225.0" width="15.1" height="15.1" fill="none" stroke="#E07A5F" stroke-width="1.6"/>
    <rect x="435.0" y="225.0" width="15.1" height="15.1" fill="none" stroke="#E07A5F" stroke-width="1.6"/>
    <rect x="403.0" y="241.0" width="15.1" height="15.1" fill="none" stroke="#E07A5F" stroke-width="1.6"/>
    <rect x="451.0" y="241.0" width="15.1" height="15.1" fill="none" stroke="#E07A5F" stroke-width="1.6"/>
    <rect x="403.0" y="257.0" width="15.1" height="15.1" fill="none" stroke="#E07A5F" stroke-width="1.6"/>
    <rect x="467.0" y="257.0" width="15.1" height="15.1" fill="none" stroke="#E07A5F" stroke-width="1.6"/>
    <rect x="515.0" y="161.0" width="15.1" height="15.1" fill="none" stroke="#E07A5F" stroke-width="1.6"/>
    <rect x="531.0" y="161.0" width="15.1" height="15.1" fill="none" stroke="#E07A5F" stroke-width="1.6"/>
    <rect x="547.0" y="161.0" width="15.1" height="15.1" fill="none" stroke="#E07A5F" stroke-width="1.6"/>
    <rect x="499.0" y="177.0" width="15.1" height="15.1" fill="none" stroke="#E07A5F" stroke-width="1.6"/>
    <rect x="563.0" y="177.0" width="15.1" height="15.1" fill="none" stroke="#E07A5F" stroke-width="1.6"/>
    <rect x="499.0" y="193.0" width="15.1" height="15.1" fill="none" stroke="#E07A5F" stroke-width="1.6"/>
    <rect x="563.0" y="193.0" width="15.1" height="15.1" fill="none" stroke="#E07A5F" stroke-width="1.6"/>
    <rect x="499.0" y="209.0" width="15.1" height="15.1" fill="none" stroke="#E07A5F" stroke-width="1.6"/>
    <rect x="515.0" y="209.0" width="15.1" height="15.1" fill="none" stroke="#E07A5F" stroke-width="1.6"/>
    <rect x="531.0" y="209.0" width="15.1" height="15.1" fill="none" stroke="#E07A5F" stroke-width="1.6"/>
    <rect x="547.0" y="209.0" width="15.1" height="15.1" fill="none" stroke="#E07A5F" stroke-width="1.6"/>
    <rect x="563.0" y="209.0" width="15.1" height="15.1" fill="none" stroke="#E07A5F" stroke-width="1.6"/>
    <rect x="499.0" y="225.0" width="15.1" height="15.1" fill="none" stroke="#E07A5F" stroke-width="1.6"/>
    <rect x="563.0" y="225.0" width="15.1" height="15.1" fill="none" stroke="#E07A5F" stroke-width="1.6"/>
    <rect x="499.0" y="241.0" width="15.1" height="15.1" fill="none" stroke="#E07A5F" stroke-width="1.6"/>
    <rect x="563.0" y="241.0" width="15.1" height="15.1" fill="none" stroke="#E07A5F" stroke-width="1.6"/>
    <rect x="499.0" y="257.0" width="15.1" height="15.1" fill="none" stroke="#E07A5F" stroke-width="1.6"/>
    <rect x="563.0" y="257.0" width="15.1" height="15.1" fill="none" stroke="#E07A5F" stroke-width="1.6"/>
    <rect x="595.0" y="161.0" width="15.1" height="15.1" fill="none" stroke="#E07A5F" stroke-width="1.6"/>
    <rect x="611.0" y="161.0" width="15.1" height="15.1" fill="none" stroke="#E07A5F" stroke-width="1.6"/>
    <rect x="627.0" y="161.0" width="15.1" height="15.1" fill="none" stroke="#E07A5F" stroke-width="1.6"/>
    <rect x="643.0" y="161.0" width="15.1" height="15.1" fill="none" stroke="#E07A5F" stroke-width="1.6"/>
    <rect x="659.0" y="161.0" width="15.1" height="15.1" fill="none" stroke="#E07A5F" stroke-width="1.6"/>
    <rect x="627.0" y="177.0" width="15.1" height="15.1" fill="none" stroke="#E07A5F" stroke-width="1.6"/>
    <rect x="627.0" y="193.0" width="15.1" height="15.1" fill="none" stroke="#E07A5F" stroke-width="1.6"/>
    <rect x="627.0" y="209.0" width="15.1" height="15.1" fill="none" stroke="#E07A5F" stroke-width="1.6"/>
    <rect x="627.0" y="225.0" width="15.1" height="15.1" fill="none" stroke="#E07A5F" stroke-width="1.6"/>
    <rect x="627.0" y="241.0" width="15.1" height="15.1" fill="none" stroke="#E07A5F" stroke-width="1.6"/>
    <rect x="627.0" y="257.0" width="15.1" height="15.1" fill="none" stroke="#E07A5F" stroke-width="1.6"/>
    <rect x="707.0" y="161.0" width="15.1" height="15.1" fill="none" stroke="#E07A5F" stroke-width="1.6"/>
    <rect x="723.0" y="161.0" width="15.1" height="15.1" fill="none" stroke="#E07A5F" stroke-width="1.6"/>
    <rect x="739.0" y="161.0" width="15.1" height="15.1" fill="none" stroke="#E07A5F" stroke-width="1.6"/>
    <rect x="691.0" y="177.0" width="15.1" height="15.1" fill="none" stroke="#E07A5F" stroke-width="1.6"/>
    <rect x="755.0" y="177.0" width="15.1" height="15.1" fill="none" stroke="#E07A5F" stroke-width="1.6"/>
    <rect x="691.0" y="193.0" width="15.1" height="15.1" fill="none" stroke="#E07A5F" stroke-width="1.6"/>
    <rect x="755.0" y="193.0" width="15.1" height="15.1" fill="none" stroke="#E07A5F" stroke-width="1.6"/>
    <rect x="691.0" y="209.0" width="15.1" height="15.1" fill="none" stroke="#E07A5F" stroke-width="1.6"/>
    <rect x="755.0" y="209.0" width="15.1" height="15.1" fill="none" stroke="#E07A5F" stroke-width="1.6"/>
    <rect x="691.0" y="225.0" width="15.1" height="15.1" fill="none" stroke="#E07A5F" stroke-width="1.6"/>
    <rect x="755.0" y="225.0" width="15.1" height="15.1" fill="none" stroke="#E07A5F" stroke-width="1.6"/>
    <rect x="691.0" y="241.0" width="15.1" height="15.1" fill="none" stroke="#E07A5F" stroke-width="1.6"/>
    <rect x="755.0" y="241.0" width="15.1" height="15.1" fill="none" stroke="#E07A5F" stroke-width="1.6"/>
    <rect x="707.0" y="257.0" width="15.1" height="15.1" fill="none" stroke="#E07A5F" stroke-width="1.6"/>
    <rect x="723.0" y="257.0" width="15.1" height="15.1" fill="none" stroke="#E07A5F" stroke-width="1.6"/>
    <rect x="739.0" y="257.0" width="15.1" height="15.1" fill="none" stroke="#E07A5F" stroke-width="1.6"/>
    <rect x="787.0" y="161.0" width="15.1" height="15.1" fill="none" stroke="#E07A5F" stroke-width="1.6"/>
    <rect x="803.0" y="161.0" width="15.1" height="15.1" fill="none" stroke="#E07A5F" stroke-width="1.6"/>
    <rect x="819.0" y="161.0" width="15.1" height="15.1" fill="none" stroke="#E07A5F" stroke-width="1.6"/>
    <rect x="835.0" y="161.0" width="15.1" height="15.1" fill="none" stroke="#E07A5F" stroke-width="1.6"/>
    <rect x="787.0" y="177.0" width="15.1" height="15.1" fill="none" stroke="#E07A5F" stroke-width="1.6"/>
    <rect x="851.0" y="177.0" width="15.1" height="15.1" fill="none" stroke="#E07A5F" stroke-width="1.6"/>
    <rect x="787.0" y="193.0" width="15.1" height="15.1" fill="none" stroke="#E07A5F" stroke-width="1.6"/>
    <rect x="851.0" y="193.0" width="15.1" height="15.1" fill="none" stroke="#E07A5F" stroke-width="1.6"/>
    <rect x="787.0" y="209.0" width="15.1" height="15.1" fill="none" stroke="#E07A5F" stroke-width="1.6"/>
    <rect x="803.0" y="209.0" width="15.1" height="15.1" fill="none" stroke="#E07A5F" stroke-width="1.6"/>
    <rect x="819.0" y="209.0" width="15.1" height="15.1" fill="none" stroke="#E07A5F" stroke-width="1.6"/>
    <rect x="835.0" y="209.0" width="15.1" height="15.1" fill="none" stroke="#E07A5F" stroke-width="1.6"/>
    <rect x="787.0" y="225.0" width="15.1" height="15.1" fill="none" stroke="#E07A5F" stroke-width="1.6"/>
    <rect x="819.0" y="225.0" width="15.1" height="15.1" fill="none" stroke="#E07A5F" stroke-width="1.6"/>
    <rect x="787.0" y="241.0" width="15.1" height="15.1" fill="none" stroke="#E07A5F" stroke-width="1.6"/>
    <rect x="835.0" y="241.0" width="15.1" height="15.1" fill="none" stroke="#E07A5F" stroke-width="1.6"/>
    <rect x="787.0" y="257.0" width="15.1" height="15.1" fill="none" stroke="#E07A5F" stroke-width="1.6"/>
    <rect x="851.0" y="257.0" width="15.1" height="15.1" fill="none" stroke="#E07A5F" stroke-width="1.6"/>
  </g>
  <g>
    <rect x="26.0" y="26.0" width="15.1" height="15.1" fill="#E07A5F"/>
    <rect x="90.0" y="26.0" width="15.1" height="15.1" fill="#E07A5F"/>
    <rect x="26.0" y="42.0" width="15.1" height="15.1" fill="#E07A5F"/>
    <rect x="42.0" y="42.0" width="15.1" height="15.1" fill="#E07A5F"/>
    <rect x="90.0" y="42.0" width="15.1" height="15.1" fill="#E07A5F"/>
    <rect x="26.0" y="58.0" width="15.1" height="15.1" fill="#E07A5F"/>
    <rect x="42.0" y="58.0" width="15.1" height="15.1" fill="#E07A5F"/>
    <rect x="90.0" y="58.0" width="15.1" height="15.1" fill="#E07A5F"/>
    <rect x="26.0" y="74.0" width="15.1" height="15.1" fill="#E07A5F"/>
    <rect x="58.0" y="74.0" width="15.1" height="15.1" fill="#E07A5F"/>
    <rect x="90.0" y="74.0" width="15.1" height="15.1" fill="#E07A5F"/>
    <rect x="26.0" y="90.0" width="15.1" height="15.1" fill="#E07A5F"/>
    <rect x="74.0" y="90.0" width="15.1" height="15.1" fill="#E07A5F"/>
    <rect x="90.0" y="90.0" width="15.1" height="15.1" fill="#E07A5F"/>
    <rect x="26.0" y="106.0" width="15.1" height="15.1" fill="#E07A5F"/>
    <rect x="74.0" y="106.0" width="15.1" height="15.1" fill="#E07A5F"/>
    <rect x="90.0" y="106.0" width="15.1" height="15.1" fill="#E07A5F"/>
    <rect x="26.0" y="122.0" width="15.1" height="15.1" fill="#E07A5F"/>
    <rect x="90.0" y="122.0" width="15.1" height="15.1" fill="#E07A5F"/>
    <rect x="138.0" y="26.0" width="15.1" height="15.1" fill="#E07A5F"/>
    <rect x="154.0" y="26.0" width="15.1" height="15.1" fill="#E07A5F"/>
    <rect x="170.0" y="26.0" width="15.1" height="15.1" fill="#E07A5F"/>
    <rect x="122.0" y="42.0" width="15.1" height="15.1" fill="#E07A5F"/>
    <rect x="186.0" y="42.0" width="15.1" height="15.1" fill="#E07A5F"/>
    <rect x="122.0" y="58.0" width="15.1" height="15.1" fill="#E07A5F"/>
    <rect x="186.0" y="58.0" width="15.1" height="15.1" fill="#E07A5F"/>
    <rect x="122.0" y="74.0" width="15.1" height="15.1" fill="#E07A5F"/>
    <rect x="186.0" y="74.0" width="15.1" height="15.1" fill="#E07A5F"/>
    <rect x="122.0" y="90.0" width="15.1" height="15.1" fill="#E07A5F"/>
    <rect x="186.0" y="90.0" width="15.1" height="15.1" fill="#E07A5F"/>
    <rect x="122.0" y="106.0" width="15.1" height="15.1" fill="#E07A5F"/>
    <rect x="186.0" y="106.0" width="15.1" height="15.1" fill="#E07A5F"/>
    <rect x="138.0" y="122.0" width="15.1" height="15.1" fill="#E07A5F"/>
    <rect x="154.0" y="122.0" width="15.1" height="15.1" fill="#E07A5F"/>
    <rect x="170.0" y="122.0" width="15.1" height="15.1" fill="#E07A5F"/>
    <rect x="218.0" y="26.0" width="15.1" height="15.1" fill="#E07A5F"/>
    <rect x="282.0" y="26.0" width="15.1" height="15.1" fill="#E07A5F"/>
    <rect x="218.0" y="42.0" width="15.1" height="15.1" fill="#E07A5F"/>
    <rect x="282.0" y="42.0" width="15.1" height="15.1" fill="#E07A5F"/>
    <rect x="218.0" y="58.0" width="15.1" height="15.1" fill="#E07A5F"/>
    <rect x="282.0" y="58.0" width="15.1" height="15.1" fill="#E07A5F"/>
    <rect x="218.0" y="74.0" width="15.1" height="15.1" fill="#E07A5F"/>
    <rect x="282.0" y="74.0" width="15.1" height="15.1" fill="#E07A5F"/>
    <rect x="218.0" y="90.0" width="15.1" height="15.1" fill="#E07A5F"/>
    <rect x="282.0" y="90.0" width="15.1" height="15.1" fill="#E07A5F"/>
    <rect x="234.0" y="106.0" width="15.1" height="15.1" fill="#E07A5F"/>
    <rect x="266.0" y="106.0" width="15.1" height="15.1" fill="#E07A5F"/>
    <rect x="250.0" y="122.0" width="15.1" height="15.1" fill="#E07A5F"/>
    <rect x="314.0" y="26.0" width="15.1" height="15.1" fill="#E07A5F"/>
    <rect x="330.0" y="26.0" width="15.1" height="15.1" fill="#E07A5F"/>
    <rect x="346.0" y="26.0" width="15.1" height="15.1" fill="#E07A5F"/>
    <rect x="362.0" y="26.0" width="15.1" height="15.1" fill="#E07A5F"/>
    <rect x="378.0" y="26.0" width="15.1" height="15.1" fill="#E07A5F"/>
    <rect x="314.0" y="42.0" width="15.1" height="15.1" fill="#E07A5F"/>
    <rect x="314.0" y="58.0" width="15.1" height="15.1" fill="#E07A5F"/>
    <rect x="314.0" y="74.0" width="15.1" height="15.1" fill="#E07A5F"/>
    <rect x="330.0" y="74.0" width="15.1" height="15.1" fill="#E07A5F"/>
    <rect x="346.0" y="74.0" width="15.1" height="15.1" fill="#E07A5F"/>
    <rect x="362.0" y="74.0" width="15.1" height="15.1" fill="#E07A5F"/>
    <rect x="314.0" y="90.0" width="15.1" height="15.1" fill="#E07A5F"/>
    <rect x="314.0" y="106.0" width="15.1" height="15.1" fill="#E07A5F"/>
    <rect x="314.0" y="122.0" width="15.1" height="15.1" fill="#E07A5F"/>
    <rect x="330.0" y="122.0" width="15.1" height="15.1" fill="#E07A5F"/>
    <rect x="346.0" y="122.0" width="15.1" height="15.1" fill="#E07A5F"/>
    <rect x="362.0" y="122.0" width="15.1" height="15.1" fill="#E07A5F"/>
    <rect x="378.0" y="122.0" width="15.1" height="15.1" fill="#E07A5F"/>
    <rect x="410.0" y="26.0" width="15.1" height="15.1" fill="#E07A5F"/>
    <rect x="410.0" y="42.0" width="15.1" height="15.1" fill="#E07A5F"/>
    <rect x="410.0" y="58.0" width="15.1" height="15.1" fill="#E07A5F"/>
    <rect x="410.0" y="74.0" width="15.1" height="15.1" fill="#E07A5F"/>
    <rect x="410.0" y="90.0" width="15.1" height="15.1" fill="#E07A5F"/>
    <rect x="410.0" y="106.0" width="15.1" height="15.1" fill="#E07A5F"/>
    <rect x="410.0" y="122.0" width="15.1" height="15.1" fill="#E07A5F"/>
    <rect x="426.0" y="122.0" width="15.1" height="15.1" fill="#E07A5F"/>
    <rect x="442.0" y="122.0" width="15.1" height="15.1" fill="#E07A5F"/>
    <rect x="458.0" y="122.0" width="15.1" height="15.1" fill="#E07A5F"/>
    <rect x="474.0" y="122.0" width="15.1" height="15.1" fill="#E07A5F"/>
    <rect x="42.0" y="154.0" width="15.1" height="15.1" fill="#E07A5F"/>
    <rect x="58.0" y="154.0" width="15.1" height="15.1" fill="#E07A5F"/>
    <rect x="74.0" y="154.0" width="15.1" height="15.1" fill="#E07A5F"/>
    <rect x="26.0" y="170.0" width="15.1" height="15.1" fill="#E07A5F"/>
    <rect x="90.0" y="170.0" width="15.1" height="15.1" fill="#E07A5F"/>
    <rect x="26.0" y="186.0" width="15.1" height="15.1" fill="#E07A5F"/>
    <rect x="26.0" y="202.0" width="15.1" height="15.1" fill="#E07A5F"/>
    <rect x="58.0" y="202.0" width="15.1" height="15.1" fill="#E07A5F"/>
    <rect x="74.0" y="202.0" width="15.1" height="15.1" fill="#E07A5F"/>
    <rect x="90.0" y="202.0" width="15.1" height="15.1" fill="#E07A5F"/>
    <rect x="26.0" y="218.0" width="15.1" height="15.1" fill="#E07A5F"/>
    <rect x="90.0" y="218.0" width="15.1" height="15.1" fill="#E07A5F"/>
    <rect x="26.0" y="234.0" width="15.1" height="15.1" fill="#E07A5F"/>
    <rect x="90.0" y="234.0" width="15.1" height="15.1" fill="#E07A5F"/>
    <rect x="42.0" y="250.0" width="15.1" height="15.1" fill="#E07A5F"/>
    <rect x="58.0" y="250.0" width="15.1" height="15.1" fill="#E07A5F"/>
    <rect x="74.0" y="250.0" width="15.1" height="15.1" fill="#E07A5F"/>
    <rect x="90.0" y="250.0" width="15.1" height="15.1" fill="#E07A5F"/>
    <rect x="122.0" y="154.0" width="15.1" height="15.1" fill="#E07A5F"/>
    <rect x="138.0" y="154.0" width="15.1" height="15.1" fill="#E07A5F"/>
    <rect x="154.0" y="154.0" width="15.1" height="15.1" fill="#E07A5F"/>
    <rect x="170.0" y="154.0" width="15.1" height="15.1" fill="#E07A5F"/>
    <rect x="186.0" y="154.0" width="15.1" height="15.1" fill="#E07A5F"/>
    <rect x="122.0" y="170.0" width="15.1" height="15.1" fill="#E07A5F"/>
    <rect x="122.0" y="186.0" width="15.1" height="15.1" fill="#E07A5F"/>
    <rect x="122.0" y="202.0" width="15.1" height="15.1" fill="#E07A5F"/>
    <rect x="138.0" y="202.0" width="15.1" height="15.1" fill="#E07A5F"/>
    <rect x="154.0" y="202.0" width="15.1" height="15.1" fill="#E07A5F"/>
    <rect x="170.0" y="202.0" width="15.1" height="15.1" fill="#E07A5F"/>
    <rect x="122.0" y="218.0" width="15.1" height="15.1" fill="#E07A5F"/>
    <rect x="122.0" y="234.0" width="15.1" height="15.1" fill="#E07A5F"/>
    <rect x="122.0" y="250.0" width="15.1" height="15.1" fill="#E07A5F"/>
    <rect x="138.0" y="250.0" width="15.1" height="15.1" fill="#E07A5F"/>
    <rect x="154.0" y="250.0" width="15.1" height="15.1" fill="#E07A5F"/>
    <rect x="170.0" y="250.0" width="15.1" height="15.1" fill="#E07A5F"/>
    <rect x="186.0" y="250.0" width="15.1" height="15.1" fill="#E07A5F"/>
    <rect x="218.0" y="154.0" width="15.1" height="15.1" fill="#E07A5F"/>
    <rect x="282.0" y="154.0" width="15.1" height="15.1" fill="#E07A5F"/>
    <rect x="218.0" y="170.0" width="15.1" height="15.1" fill="#E07A5F"/>
    <rect x="234.0" y="170.0" width="15.1" height="15.1" fill="#E07A5F"/>
    <rect x="282.0" y="170.0" width="15.1" height="15.1" fill="#E07A5F"/>
    <rect x="218.0" y="186.0" width="15.1" height="15.1" fill="#E07A5F"/>
    <rect x="234.0" y="186.0" width="15.1" height="15.1" fill="#E07A5F"/>
    <rect x="282.0" y="186.0" width="15.1" height="15.1" fill="#E07A5F"/>
    <rect x="218.0" y="202.0" width="15.1" height="15.1" fill="#E07A5F"/>
    <rect x="250.0" y="202.0" width="15.1" height="15.1" fill="#E07A5F"/>
    <rect x="282.0" y="202.0" width="15.1" height="15.1" fill="#E07A5F"/>
    <rect x="218.0" y="218.0" width="15.1" height="15.1" fill="#E07A5F"/>
    <rect x="266.0" y="218.0" width="15.1" height="15.1" fill="#E07A5F"/>
    <rect x="282.0" y="218.0" width="15.1" height="15.1" fill="#E07A5F"/>
    <rect x="218.0" y="234.0" width="15.1" height="15.1" fill="#E07A5F"/>
    <rect x="266.0" y="234.0" width="15.1" height="15.1" fill="#E07A5F"/>
    <rect x="282.0" y="234.0" width="15.1" height="15.1" fill="#E07A5F"/>
    <rect x="218.0" y="250.0" width="15.1" height="15.1" fill="#E07A5F"/>
    <rect x="282.0" y="250.0" width="15.1" height="15.1" fill="#E07A5F"/>
    <rect x="314.0" y="154.0" width="15.1" height="15.1" fill="#E07A5F"/>
    <rect x="330.0" y="154.0" width="15.1" height="15.1" fill="#E07A5F"/>
    <rect x="346.0" y="154.0" width="15.1" height="15.1" fill="#E07A5F"/>
    <rect x="362.0" y="154.0" width="15.1" height="15.1" fill="#E07A5F"/>
    <rect x="378.0" y="154.0" width="15.1" height="15.1" fill="#E07A5F"/>
    <rect x="314.0" y="170.0" width="15.1" height="15.1" fill="#E07A5F"/>
    <rect x="314.0" y="186.0" width="15.1" height="15.1" fill="#E07A5F"/>
    <rect x="314.0" y="202.0" width="15.1" height="15.1" fill="#E07A5F"/>
    <rect x="330.0" y="202.0" width="15.1" height="15.1" fill="#E07A5F"/>
    <rect x="346.0" y="202.0" width="15.1" height="15.1" fill="#E07A5F"/>
    <rect x="362.0" y="202.0" width="15.1" height="15.1" fill="#E07A5F"/>
    <rect x="314.0" y="218.0" width="15.1" height="15.1" fill="#E07A5F"/>
    <rect x="314.0" y="234.0" width="15.1" height="15.1" fill="#E07A5F"/>
    <rect x="314.0" y="250.0" width="15.1" height="15.1" fill="#E07A5F"/>
    <rect x="330.0" y="250.0" width="15.1" height="15.1" fill="#E07A5F"/>
    <rect x="346.0" y="250.0" width="15.1" height="15.1" fill="#E07A5F"/>
    <rect x="362.0" y="250.0" width="15.1" height="15.1" fill="#E07A5F"/>
    <rect x="378.0" y="250.0" width="15.1" height="15.1" fill="#E07A5F"/>
    <rect x="410.0" y="154.0" width="15.1" height="15.1" fill="#E07A5F"/>
    <rect x="426.0" y="154.0" width="15.1" height="15.1" fill="#E07A5F"/>
    <rect x="442.0" y="154.0" width="15.1" height="15.1" fill="#E07A5F"/>
    <rect x="458.0" y="154.0" width="15.1" height="15.1" fill="#E07A5F"/>
    <rect x="410.0" y="170.0" width="15.1" height="15.1" fill="#E07A5F"/>
    <rect x="474.0" y="170.0" width="15.1" height="15.1" fill="#E07A5F"/>
    <rect x="410.0" y="186.0" width="15.1" height="15.1" fill="#E07A5F"/>
    <rect x="474.0" y="186.0" width="15.1" height="15.1" fill="#E07A5F"/>
    <rect x="410.0" y="202.0" width="15.1" height="15.1" fill="#E07A5F"/>
    <rect x="426.0" y="202.0" width="15.1" height="15.1" fill="#E07A5F"/>
    <rect x="442.0" y="202.0" width="15.1" height="15.1" fill="#E07A5F"/>
    <rect x="458.0" y="202.0" width="15.1" height="15.1" fill="#E07A5F"/>
    <rect x="410.0" y="218.0" width="15.1" height="15.1" fill="#E07A5F"/>
    <rect x="442.0" y="218.0" width="15.1" height="15.1" fill="#E07A5F"/>
    <rect x="410.0" y="234.0" width="15.1" height="15.1" fill="#E07A5F"/>
    <rect x="458.0" y="234.0" width="15.1" height="15.1" fill="#E07A5F"/>
    <rect x="410.0" y="250.0" width="15.1" height="15.1" fill="#E07A5F"/>
    <rect x="474.0" y="250.0" width="15.1" height="15.1" fill="#E07A5F"/>
    <rect x="522.0" y="154.0" width="15.1" height="15.1" fill="#E07A5F"/>
    <rect x="538.0" y="154.0" width="15.1" height="15.1" fill="#E07A5F"/>
    <rect x="554.0" y="154.0" width="15.1" height="15.1" fill="#E07A5F"/>
    <rect x="506.0" y="170.0" width="15.1" height="15.1" fill="#E07A5F"/>
    <rect x="570.0" y="170.0" width="15.1" height="15.1" fill="#E07A5F"/>
    <rect x="506.0" y="186.0" width="15.1" height="15.1" fill="#E07A5F"/>
    <rect x="570.0" y="186.0" width="15.1" height="15.1" fill="#E07A5F"/>
    <rect x="506.0" y="202.0" width="15.1" height="15.1" fill="#E07A5F"/>
    <rect x="522.0" y="202.0" width="15.1" height="15.1" fill="#E07A5F"/>
    <rect x="538.0" y="202.0" width="15.1" height="15.1" fill="#E07A5F"/>
    <rect x="554.0" y="202.0" width="15.1" height="15.1" fill="#E07A5F"/>
    <rect x="570.0" y="202.0" width="15.1" height="15.1" fill="#E07A5F"/>
    <rect x="506.0" y="218.0" width="15.1" height="15.1" fill="#E07A5F"/>
    <rect x="570.0" y="218.0" width="15.1" height="15.1" fill="#E07A5F"/>
    <rect x="506.0" y="234.0" width="15.1" height="15.1" fill="#E07A5F"/>
    <rect x="570.0" y="234.0" width="15.1" height="15.1" fill="#E07A5F"/>
    <rect x="506.0" y="250.0" width="15.1" height="15.1" fill="#E07A5F"/>
    <rect x="570.0" y="250.0" width="15.1" height="15.1" fill="#E07A5F"/>
    <rect x="602.0" y="154.0" width="15.1" height="15.1" fill="#E07A5F"/>
    <rect x="618.0" y="154.0" width="15.1" height="15.1" fill="#E07A5F"/>
    <rect x="634.0" y="154.0" width="15.1" height="15.1" fill="#E07A5F"/>
    <rect x="650.0" y="154.0" width="15.1" height="15.1" fill="#E07A5F"/>
    <rect x="666.0" y="154.0" width="15.1" height="15.1" fill="#E07A5F"/>
    <rect x="634.0" y="170.0" width="15.1" height="15.1" fill="#E07A5F"/>
    <rect x="634.0" y="186.0" width="15.1" height="15.1" fill="#E07A5F"/>
    <rect x="634.0" y="202.0" width="15.1" height="15.1" fill="#E07A5F"/>
    <rect x="634.0" y="218.0" width="15.1" height="15.1" fill="#E07A5F"/>
    <rect x="634.0" y="234.0" width="15.1" height="15.1" fill="#E07A5F"/>
    <rect x="634.0" y="250.0" width="15.1" height="15.1" fill="#E07A5F"/>
    <rect x="714.0" y="154.0" width="15.1" height="15.1" fill="#E07A5F"/>
    <rect x="730.0" y="154.0" width="15.1" height="15.1" fill="#E07A5F"/>
    <rect x="746.0" y="154.0" width="15.1" height="15.1" fill="#E07A5F"/>
    <rect x="698.0" y="170.0" width="15.1" height="15.1" fill="#E07A5F"/>
    <rect x="762.0" y="170.0" width="15.1" height="15.1" fill="#E07A5F"/>
    <rect x="698.0" y="186.0" width="15.1" height="15.1" fill="#E07A5F"/>
    <rect x="762.0" y="186.0" width="15.1" height="15.1" fill="#E07A5F"/>
    <rect x="698.0" y="202.0" width="15.1" height="15.1" fill="#E07A5F"/>
    <rect x="762.0" y="202.0" width="15.1" height="15.1" fill="#E07A5F"/>
    <rect x="698.0" y="218.0" width="15.1" height="15.1" fill="#E07A5F"/>
    <rect x="762.0" y="218.0" width="15.1" height="15.1" fill="#E07A5F"/>
    <rect x="698.0" y="234.0" width="15.1" height="15.1" fill="#E07A5F"/>
    <rect x="762.0" y="234.0" width="15.1" height="15.1" fill="#E07A5F"/>
    <rect x="714.0" y="250.0" width="15.1" height="15.1" fill="#E07A5F"/>
    <rect x="730.0" y="250.0" width="15.1" height="15.1" fill="#E07A5F"/>
    <rect x="746.0" y="250.0" width="15.1" height="15.1" fill="#E07A5F"/>
    <rect x="794.0" y="154.0" width="15.1" height="15.1" fill="#E07A5F"/>
    <rect x="810.0" y="154.0" width="15.1" height="15.1" fill="#E07A5F"/>
    <rect x="826.0" y="154.0" width="15.1" height="15.1" fill="#E07A5F"/>
    <rect x="842.0" y="154.0" width="15.1" height="15.1" fill="#E07A5F"/>
    <rect x="794.0" y="170.0" width="15.1" height="15.1" fill="#E07A5F"/>
    <rect x="858.0" y="170.0" width="15.1" height="15.1" fill="#E07A5F"/>
    <rect x="794.0" y="186.0" width="15.1" height="15.1" fill="#E07A5F"/>
    <rect x="858.0" y="186.0" width="15.1" height="15.1" fill="#E07A5F"/>
    <rect x="794.0" y="202.0" width="15.1" height="15.1" fill="#E07A5F"/>
    <rect x="810.0" y="202.0" width="15.1" height="15.1" fill="#E07A5F"/>
    <rect x="826.0" y="202.0" width="15.1" height="15.1" fill="#E07A5F"/>
    <rect x="842.0" y="202.0" width="15.1" height="15.1" fill="#E07A5F"/>
    <rect x="794.0" y="218.0" width="15.1" height="15.1" fill="#E07A5F"/>
    <rect x="826.0" y="218.0" width="15.1" height="15.1" fill="#E07A5F"/>
    <rect x="794.0" y="234.0" width="15.1" height="15.1" fill="#E07A5F"/>
    <rect x="842.0" y="234.0" width="15.1" height="15.1" fill="#E07A5F"/>
    <rect x="794.0" y="250.0" width="15.1" height="15.1" fill="#E07A5F"/>
    <rect x="858.0" y="250.0" width="15.1" height="15.1" fill="#E07A5F"/>
  </g>
</svg>
